<svg width="36" height="36" viewBox="0 0 36 36" fill="none" xmlns="http://www.w3.org/2000/svg">
<path fill-rule="evenodd" clip-rule="evenodd" d="M0 35.9994H12.8967C13.1412 26.8852 17.9712 20.917 25.5443 19.003C10.353 17.8295 2.13707 29.5206 0 35.9994Z" fill="#4EFDEA"/>
<path fill-rule="evenodd" clip-rule="evenodd" d="M25.6472 31.1909C22.2612 26.4015 25.5534 20.9409 26.5743 20.0234C18.9187 22.7188 17.882 33.2626 18.5069 35.9541L32.681 36.0002C29.2027 34.7098 27.0386 33.078 25.7589 31.3493C25.6472 31.1909 25.6472 31.1909 25.6472 31.1909Z" fill="#006BF1"/>
<path fill-rule="evenodd" clip-rule="evenodd" d="M12.1396 0V10.3777C19.5027 12.9861 40.0903 20.4039 26.8839 31.1907L26.9956 31.3491C31.125 29.7019 33.8029 27.4795 35.0361 25.1832C40.0048 15.9291 24.7768 6.06434 12.1396 0Z" fill="#7782F1"/>
</svg>
