<svg width="31" height="9" viewBox="0 0 31 9" fill="none" xmlns="http://www.w3.org/2000/svg">
<path d="M4.971 2.8637L5.745 4.7397H4.203L4.971 2.8637ZM21.046 2.9417H18.069V3.7687H20.998V5.0077H18.075V5.9297H21.052V6.6687L23.129 4.4237L21.052 2.0837L21.046 2.9417ZM6.983 0.601703H10.978L11.865 2.5367L12.687 0.595703H23.057L24.135 1.7857L25.25 0.595703H30.013L26.494 4.4477L29.977 8.2757H25.143L24.065 7.0857L22.94 8.2757H6.03L5.536 7.0857H4.406L3.911 8.2757H0L3.286 0.595703H6.716L6.983 0.601703ZM15.646 1.6797H13.407L11.907 5.2157L10.282 1.6797H8.06V6.4897L6 1.6797H4.007L1.625 7.1917H3.18L3.674 6.0017H6.27L6.764 7.1917H9.484V3.2567L11.235 7.1977H12.425L14.165 3.2687V7.1987H15.623L15.647 1.6787L15.646 1.6797ZM24.986 4.4477L27.517 1.6797H25.695L24.094 3.4057L22.546 1.6797H16.652V7.1977H22.462L24.076 5.4597L25.624 7.1977H27.499L24.987 4.4477H24.986Z" fill="white"/>
</svg>
