<svg width="4" height="8" viewBox="0 0 4 8" fill="none" xmlns="http://www.w3.org/2000/svg">
<path d="M0.0263672 7.50017C0.0264839 7.36761 0.0792389 7.24051 0.173034 7.14684L2.73037 4.5895C2.80777 4.51212 2.86918 4.42024 2.91107 4.31912C2.95296 4.218 2.97452 4.10962 2.97452 4.00017C2.97452 3.89072 2.95296 3.78233 2.91107 3.68122C2.86918 3.5801 2.80777 3.48822 2.73037 3.41084L0.176367 0.855169C0.0852881 0.760867 0.0348909 0.634566 0.0360301 0.503468C0.0371693 0.372369 0.0897539 0.246963 0.182458 0.154259C0.275162 0.0615551 0.400568 0.00897061 0.531667 0.0078314C0.662765 0.00669219 0.789066 0.0570894 0.883367 0.148168L3.43737 2.70184C3.78078 3.04592 3.97365 3.5122 3.97365 3.99834C3.97365 4.48447 3.78078 4.95075 3.43737 5.29484L0.880034 7.85217C0.810207 7.92204 0.721248 7.96967 0.624383 7.98903C0.527517 8.00839 0.427087 7.99863 0.335763 7.96098C0.24444 7.92332 0.166317 7.85946 0.111253 7.77745C0.0561892 7.69544 0.0266513 7.59895 0.0263672 7.50017Z" fill="#84849A"/>
</svg>
