<svg width="20" height="18" viewBox="0 0 20 18" fill="none" xmlns="http://www.w3.org/2000/svg">
<path d="M20 14.1114C20 15.9923 18.6064 17.5239 16.8949 17.5239H0V4.00821C0 2.1273 1.39364 0.595703 3.10513 0.595703H20V14.1114Z" fill="white"/>
<path d="M14.499 10.6452H15.7826C15.8193 10.6452 15.9049 10.6318 15.9416 10.6318C16.1861 10.5781 16.3939 10.3362 16.3939 10.0004C16.3939 9.67791 16.1861 9.43608 15.9416 9.3689C15.9049 9.35547 15.8315 9.35547 15.7826 9.35547H14.499V10.6452Z" fill="url(#paint0_linear_0_3638)"/>
<path d="M15.6356 1.7373C14.4131 1.7373 13.4107 2.82555 13.4107 4.18249V6.72172H16.5525C16.6258 6.72172 16.7114 6.72172 16.7725 6.73515C17.4816 6.77546 18.0072 7.17851 18.0072 7.87713C18.0072 8.42797 17.6527 8.8982 16.9926 8.99225V9.01912C17.7138 9.07286 18.264 9.51621 18.264 10.2014C18.264 10.9403 17.6527 11.424 16.8459 11.424H13.3984V16.395H16.6625C17.885 16.395 18.8874 15.3067 18.8874 13.9498V1.7373H15.6356Z" fill="url(#paint1_linear_0_3638)"/>
<path d="M16.235 8.03841C16.235 7.71597 16.0271 7.50101 15.7826 7.4607C15.7582 7.4607 15.6971 7.44727 15.6604 7.44727H14.499V8.62955H15.6604C15.6971 8.62955 15.7704 8.62955 15.7826 8.61612C16.0271 8.57581 16.235 8.36085 16.235 8.03841Z" fill="url(#paint2_linear_0_3638)"/>
<path d="M3.33775 1.7373C2.11526 1.7373 1.11281 2.82555 1.11281 4.18249V10.2148C1.73628 10.5507 2.3842 10.7657 3.03213 10.7657C3.8023 10.7657 4.21794 10.2551 4.21794 9.55652V6.70828H6.12503V9.54308C6.12503 10.6448 5.50156 11.5449 3.38665 11.5449C2.10303 11.5449 1.10059 11.2359 1.10059 11.2359V16.3815H4.36464C5.58714 16.3815 6.58958 15.2933 6.58958 13.9364V1.7373H3.33775Z" fill="url(#paint3_linear_0_3638)"/>
<path d="M9.48666 1.7373C8.26416 1.7373 7.26172 2.82555 7.26172 4.18249V7.38004C7.82407 6.85607 8.80206 6.52019 10.3791 6.6008C11.2226 6.64111 12.1272 6.89638 12.1272 6.89638V7.93088C11.6749 7.67561 11.137 7.44721 10.4402 7.39347C9.24216 7.29943 8.52089 7.94431 8.52089 9.07286C8.52089 10.2148 9.24216 10.8597 10.4402 10.7522C11.137 10.6985 11.6749 10.4567 12.1272 10.2148V11.2493C12.1272 11.2493 11.2348 11.5046 10.3791 11.5449C8.80206 11.6255 7.82407 11.2896 7.26172 10.7657V16.4084H10.5258C11.7483 16.4084 12.7507 15.3202 12.7507 13.9632V1.7373H9.48666Z" fill="url(#paint4_linear_0_3638)"/>
<defs>
<linearGradient id="paint0_linear_0_3638" x1="13.409" y1="10.002" x2="18.9025" y2="10.002" gradientUnits="userSpaceOnUse">
<stop stop-color="#007940"/>
<stop offset="0.2285" stop-color="#00873F"/>
<stop offset="0.7433" stop-color="#40A737"/>
<stop offset="1" stop-color="#5CB531"/>
</linearGradient>
<linearGradient id="paint1_linear_0_3638" x1="13.4085" y1="9.06027" x2="18.9024" y2="9.06027" gradientUnits="userSpaceOnUse">
<stop stop-color="#007940"/>
<stop offset="0.2285" stop-color="#00873F"/>
<stop offset="0.7433" stop-color="#40A737"/>
<stop offset="1" stop-color="#5CB531"/>
</linearGradient>
<linearGradient id="paint2_linear_0_3638" x1="13.4088" y1="8.03673" x2="18.9026" y2="8.03673" gradientUnits="userSpaceOnUse">
<stop stop-color="#007940"/>
<stop offset="0.2285" stop-color="#00873F"/>
<stop offset="0.7433" stop-color="#40A737"/>
<stop offset="1" stop-color="#5CB531"/>
</linearGradient>
<linearGradient id="paint3_linear_0_3638" x1="1.11022" y1="9.06027" x2="6.68883" y2="9.06027" gradientUnits="userSpaceOnUse">
<stop stop-color="#1F286F"/>
<stop offset="0.4751" stop-color="#004E94"/>
<stop offset="0.8261" stop-color="#0066B1"/>
<stop offset="1" stop-color="#006FBC"/>
</linearGradient>
<linearGradient id="paint4_linear_0_3638" x1="7.23011" y1="9.06027" x2="12.6482" y2="9.06027" gradientUnits="userSpaceOnUse">
<stop stop-color="#6C2C2F"/>
<stop offset="0.1735" stop-color="#882730"/>
<stop offset="0.5731" stop-color="#BE1833"/>
<stop offset="0.8585" stop-color="#DC0436"/>
<stop offset="1" stop-color="#E60039"/>
</linearGradient>
</defs>
</svg>
