<svg width="100" height="100" viewBox="0 0 100 100" fill="none" xmlns="http://www.w3.org/2000/svg">
<path d="M67.2395 49.8314H41.8524C40.5293 49.8314 39.3699 48.9464 39.0211 47.6702C38.6723 46.3941 39.2203 45.0423 40.3592 44.3691C51.4203 37.8331 57.1658 30.2089 57.9237 21.0609C58.1879 17.8861 61.0156 15.3501 64.2256 15.3921C67.501 15.4445 70.5696 16.7574 72.8678 19.0894C75.1678 21.4236 76.4354 24.5146 76.4365 27.7927C76.4365 27.7931 76.4365 27.7935 76.4365 27.7939V28.78C76.4365 36.7878 74.0647 41.8937 69.6883 48.5144C69.1444 49.3368 68.225 49.8314 67.2395 49.8314Z" fill="#FFC380"/>
<path d="M98.352 53.1588C98.352 48.0877 94.2264 43.9619 89.1551 43.9619H41.8521C41.3266 43.9619 40.8105 44.1029 40.3584 44.3705C37.0379 46.3338 33.6852 47.95 30.9912 49.249C30.0516 49.702 29.1641 50.1299 28.3568 50.5334C27.3625 51.0307 26.7344 52.0469 26.7344 53.1588V90.7289C26.7344 91.8408 27.3625 92.857 28.3568 93.3543C40.2168 99.2834 50.0754 100 61.5717 100C63.352 100 65.1727 99.9832 67.0449 99.9656C69.1156 99.9461 71.2565 99.9258 73.501 99.9258H82.7801C87.8512 99.9258 91.977 95.8002 91.977 90.7289C91.977 89.0238 91.5107 87.4258 90.6986 86.0553C93.341 84.4377 95.1078 81.5242 95.1078 78.2055C95.1078 76.5004 94.6416 74.9023 93.8295 73.5318C96.4719 71.9143 98.2387 69.0008 98.2387 65.682C98.2387 63.2969 97.326 61.1209 95.8316 59.4852C97.459 57.7701 98.352 55.5332 98.352 53.1588Z" fill="#FFCF99"/>
<path d="M92.2467 27.5617H85.985C84.3641 27.5617 83.0498 26.2475 83.0498 24.6266C83.0498 23.0057 84.3641 21.6914 85.985 21.6914H92.2467C93.8676 21.6914 95.1818 23.0057 95.1818 24.6266C95.1818 26.2475 93.8678 27.5617 92.2467 27.5617Z" fill="url(#paint0_linear_0_4277)"/>
<path d="M48.4146 27.5617H42.1529C40.532 27.5617 39.2178 26.2475 39.2178 24.6266C39.2178 23.0057 40.532 21.6914 42.1529 21.6914H48.4146C50.0355 21.6914 51.3498 23.0057 51.3498 24.6266C51.3498 26.2475 50.0359 27.5617 48.4146 27.5617Z" fill="url(#paint1_linear_0_4277)"/>
<path d="M57.8103 11.2939C56.7957 11.2939 55.8094 10.7676 55.2658 9.82596L52.1349 4.40311C51.3244 2.9994 51.8055 1.20409 53.2092 0.393736C54.6129 -0.416811 56.4082 0.0642438 57.2185 1.46795L60.3494 6.89081C61.16 8.29452 60.6789 10.0898 59.2752 10.9002C58.8131 11.1672 58.3082 11.2939 57.8103 11.2939Z" fill="url(#paint2_linear_0_4277)"/>
<path d="M76.5895 11.2941C76.0915 11.2941 75.5868 11.1673 75.1247 10.9004C73.721 10.0898 73.2399 8.29469 74.0505 6.89098L77.1813 1.46813C77.9917 0.0644174 79.787 -0.417028 81.1907 0.393909C82.5944 1.20446 83.0755 2.99957 82.2649 4.40329L79.1341 9.82614C78.5909 10.7677 77.604 11.2941 76.5895 11.2941Z" fill="url(#paint3_linear_0_4277)"/>
<path d="M20.0417 84.5035V99.9621H14.1714V84.5035C14.1714 82.8834 15.4864 81.5684 17.1065 81.5684C18.7267 81.5684 20.0417 82.8834 20.0417 84.5035Z" fill="#73C3FF"/>
<path d="M92.2467 27.5617H85.985C84.3641 27.5617 83.0498 26.2475 83.0498 24.6266C83.0498 23.0057 84.3641 21.6914 85.985 21.6914H92.2467C93.8676 21.6914 95.1818 23.0057 95.1818 24.6266C95.1818 26.2475 93.8678 27.5617 92.2467 27.5617Z" fill="url(#paint4_linear_0_4277)"/>
<path d="M48.4146 27.5617H42.1529C40.532 27.5617 39.2178 26.2475 39.2178 24.6266C39.2178 23.0057 40.532 21.6914 42.1529 21.6914H48.4146C50.0355 21.6914 51.3498 23.0057 51.3498 24.6266C51.3498 26.2475 50.0359 27.5617 48.4146 27.5617Z" fill="url(#paint5_linear_0_4277)"/>
<path d="M57.8103 11.2939C56.7957 11.2939 55.8094 10.7676 55.2658 9.82596L52.1349 4.40311C51.3244 2.9994 51.8055 1.20409 53.2092 0.393736C54.6129 -0.416811 56.4082 0.0642438 57.2185 1.46795L60.3494 6.89081C61.16 8.29452 60.6789 10.0898 59.2752 10.9002C58.8131 11.1672 58.3082 11.2939 57.8103 11.2939Z" fill="url(#paint6_linear_0_4277)"/>
<path d="M76.5895 11.2941C76.0915 11.2941 75.5868 11.1673 75.1247 10.9004C73.721 10.0898 73.2399 8.29469 74.0505 6.89098L77.1813 1.46813C77.9917 0.0644174 79.787 -0.417028 81.1907 0.393909C82.5944 1.20446 83.0755 2.99957 82.2649 4.40329L79.1341 9.82614C78.5909 10.7677 77.604 11.2941 76.5895 11.2941Z" fill="url(#paint7_linear_0_4277)"/>
<path d="M20.0417 84.5035V99.9621H14.1714V84.5035C14.1714 82.8834 15.4864 81.5684 17.1065 81.5684C18.7267 81.5684 20.0417 82.8834 20.0417 84.5035Z" fill="#73C3FF"/>
<path d="M29.6298 43.9619H4.58311C2.96299 43.9619 1.64795 45.277 1.64795 46.8971V96.9904C1.64795 98.6125 2.96299 99.9256 4.58311 99.9627H23.3681C26.9665 99.9256 30.0876 97.8494 31.5964 94.832C32.2167 93.5973 32.5649 92.2021 32.5649 90.7287V46.8971C32.5649 45.2768 31.2499 43.9619 29.6298 43.9619Z" fill="#44A4EC"/>
<path d="M20.0417 84.3082V99.9625H14.1714V84.3082C14.1714 82.6881 15.4864 81.373 17.1065 81.373C18.7267 81.373 20.0417 82.6881 20.0417 84.3082Z" fill="#73C3FF"/>
<defs>
<linearGradient id="paint0_linear_0_4277" x1="83.8586" y1="27.5617" x2="94.2214" y2="27.5617" gradientUnits="userSpaceOnUse">
<stop stop-color="#4EFDEA"/>
<stop offset="1" stop-color="#5766FF"/>
</linearGradient>
<linearGradient id="paint1_linear_0_4277" x1="40.0266" y1="27.5617" x2="50.3893" y2="27.5617" gradientUnits="userSpaceOnUse">
<stop stop-color="#4EFDEA"/>
<stop offset="1" stop-color="#5766FF"/>
</linearGradient>
<linearGradient id="paint2_linear_0_4277" x1="52.3413" y1="11.2939" x2="60.0305" y2="11.2939" gradientUnits="userSpaceOnUse">
<stop stop-color="#4EFDEA"/>
<stop offset="1" stop-color="#5766FF"/>
</linearGradient>
<linearGradient id="paint3_linear_0_4277" x1="74.2569" y1="11.2941" x2="81.946" y2="11.2941" gradientUnits="userSpaceOnUse">
<stop stop-color="#4EFDEA"/>
<stop offset="1" stop-color="#5766FF"/>
</linearGradient>
<linearGradient id="paint4_linear_0_4277" x1="83.8586" y1="27.5617" x2="94.2214" y2="27.5617" gradientUnits="userSpaceOnUse">
<stop stop-color="#4EFDEA"/>
<stop offset="1" stop-color="#5766FF"/>
</linearGradient>
<linearGradient id="paint5_linear_0_4277" x1="40.0266" y1="27.5617" x2="50.3893" y2="27.5617" gradientUnits="userSpaceOnUse">
<stop stop-color="#4EFDEA"/>
<stop offset="1" stop-color="#5766FF"/>
</linearGradient>
<linearGradient id="paint6_linear_0_4277" x1="52.3413" y1="11.2939" x2="60.0305" y2="11.2939" gradientUnits="userSpaceOnUse">
<stop stop-color="#4EFDEA"/>
<stop offset="1" stop-color="#5766FF"/>
</linearGradient>
<linearGradient id="paint7_linear_0_4277" x1="74.2569" y1="11.2941" x2="81.946" y2="11.2941" gradientUnits="userSpaceOnUse">
<stop stop-color="#4EFDEA"/>
<stop offset="1" stop-color="#5766FF"/>
</linearGradient>
</defs>
</svg>
