<svg width="22" height="15" viewBox="0 0 22 15" fill="none" xmlns="http://www.w3.org/2000/svg">
<path d="M7 14.5957C10.866 14.5957 14 11.4617 14 7.5957C14 3.72971 10.866 0.595703 7 0.595703C3.13401 0.595703 0 3.72971 0 7.5957C0 11.4617 3.13401 14.5957 7 14.5957Z" fill="#EB001B"/>
<path d="M15 14.5957C18.866 14.5957 22 11.4617 22 7.5957C22 3.72971 18.866 0.595703 15 0.595703C11.134 0.595703 8 3.72971 8 7.5957C8 11.4617 11.134 14.5957 15 14.5957Z" fill="#F79E1B"/>
<path d="M14 7.59551C14 5.19551 12.8 3.09551 11 1.89551C9.2 3.19551 8 5.29551 8 7.59551C8 9.8955 9.2 12.0955 11 13.2955C12.8 12.0955 14 9.9955 14 7.59551Z" fill="#FF5F00"/>
</svg>
