<svg width="14" height="15" viewBox="0 0 14 15" fill="none" xmlns="http://www.w3.org/2000/svg">
<path fill-rule="evenodd" clip-rule="evenodd" d="M5.68564 3.92871H10.1379C12.5284 3.92871 13.4283 5.01462 13.2892 6.61203C13.0605 9.24584 11.2849 10.703 8.93118 10.703H7.74283C7.41989 10.703 7.20268 10.8948 7.11533 11.4146L6.60506 14.4341C6.57173 14.63 6.4568 14.7455 6.28441 14.7589H3.49284C3.22966 14.7589 3.13657 14.5784 3.20552 14.1876L4.91104 4.50106C4.97884 4.1133 5.21444 3.92871 5.68564 3.92871Z" fill="#009EE3"/>
<path fill-rule="evenodd" clip-rule="evenodd" d="M2.89958 0.595703H7.35645C8.61145 0.595703 10.1009 0.631797 11.0962 1.42071C11.7616 1.94768 12.111 2.78608 12.0305 3.68637C11.757 6.73991 9.72165 8.45076 6.99098 8.45076H4.79358C4.41892 8.45076 4.17183 8.67351 4.06609 9.27576L3.45238 12.7769C3.41216 13.0037 3.30298 13.1378 3.10301 13.1543H0.357401C0.052845 13.1543 -0.0551862 12.945 0.0241133 12.4922L2.00086 1.25983C2.08016 0.810204 2.35483 0.595703 2.89958 0.595703Z" fill="#113984"/>
<path fill-rule="evenodd" clip-rule="evenodd" d="M4.13086 8.92306L4.90891 4.50209C4.97672 4.11434 5.21347 3.92871 5.68467 3.92871H10.1369C10.8736 3.92871 11.4701 4.03184 11.9367 4.22262C11.4896 6.94099 9.53012 8.45075 6.96496 8.45075H4.7664C4.47679 8.45075 4.26073 8.58378 4.13086 8.92306Z" fill="#172C70"/>
</svg>
