<svg width="20" height="11" viewBox="0 0 20 11" fill="none" xmlns="http://www.w3.org/2000/svg">
<path d="M9.99999 10.3079C9.45245 10.3089 8.91009 10.2019 8.4039 9.99317C7.89772 9.7844 7.43765 9.47792 7.04999 9.09124L0.241658 2.2829C0.0847386 2.12598 -0.00341797 1.91315 -0.00341797 1.69124C-0.00341797 1.46932 0.0847386 1.25649 0.241658 1.09957C0.398578 0.942649 0.611407 0.854492 0.833325 0.854492C1.05524 0.854492 1.26807 0.942649 1.42499 1.09957L8.23333 7.9079C8.70208 8.37607 9.33749 8.63904 9.99999 8.63904C10.6625 8.63904 11.2979 8.37607 11.7667 7.9079L18.575 1.09957C18.7319 0.942649 18.9447 0.854492 19.1667 0.854492C19.3886 0.854492 19.6014 0.942649 19.7583 1.09957C19.9152 1.25649 20.0034 1.46932 20.0034 1.69124C20.0034 1.91315 19.9152 2.12598 19.7583 2.2829L12.95 9.09124C12.5623 9.47792 12.1023 9.7844 11.5961 9.99317C11.0899 10.2019 10.5475 10.3089 9.99999 10.3079Z" fill="#979AB8"/>
</svg>
