<svg width="16" height="12" viewBox="0 0 16 12" fill="none" xmlns="http://www.w3.org/2000/svg">
<path d="M14.8794 0.549709L5.66675 9.76171C5.60481 9.82389 5.5312 9.87323 5.45014 9.9069C5.36909 9.94057 5.28218 9.9579 5.19441 9.9579C5.10665 9.9579 5.01974 9.94057 4.93868 9.9069C4.85763 9.87323 4.78402 9.82389 4.72208 9.76171L1.15941 6.19571C1.09747 6.13352 1.02387 6.08418 0.94281 6.05051C0.861755 6.01685 0.77485 5.99952 0.687081 5.99952C0.599312 5.99952 0.512406 6.01685 0.431351 6.05051C0.350296 6.08418 0.276687 6.13352 0.214747 6.19571C0.152563 6.25765 0.103221 6.33126 0.0695536 6.41231C0.0358858 6.49337 0.0185547 6.58027 0.0185547 6.66804C0.0185547 6.75581 0.0358858 6.84272 0.0695536 6.92377C0.103221 7.00483 0.152563 7.07844 0.214747 7.14038L3.77875 10.7037C4.15471 11.079 4.66421 11.2897 5.19541 11.2897C5.72662 11.2897 6.23612 11.079 6.61208 10.7037L15.8241 1.49371C15.8862 1.43178 15.9354 1.35821 15.969 1.27722C16.0026 1.19623 16.0199 1.1094 16.0199 1.02171C16.0199 0.934019 16.0026 0.84719 15.969 0.766197C15.9354 0.685203 15.8862 0.611636 15.8241 0.549709C15.7621 0.487524 15.6885 0.438182 15.6075 0.404515C15.5264 0.370847 15.4395 0.353516 15.3517 0.353516C15.264 0.353516 15.1771 0.370847 15.096 0.404515C15.015 0.438182 14.9414 0.487524 14.8794 0.549709Z" fill="#374957"/>
</svg>
