<svg width="19" height="15" viewBox="0 0 19 15" fill="none" xmlns="http://www.w3.org/2000/svg">
<path d="M10.8557 14.6496C14.8682 14.6691 18.5308 11.3844 18.5308 7.38843C18.5308 3.01897 14.8682 -0.00125222 10.8557 3.89485e-07H7.40271C3.34223 -0.00125222 0 3.01968 0 7.38843C0 11.3853 3.34223 14.6691 7.40271 14.6496H10.8557Z" fill="#006095"/>
<path d="M8.94298 11.2793V3.34475C10.5412 3.95656 11.6758 5.50067 11.6785 7.31176C11.6758 9.12321 10.5412 10.6664 8.94298 11.2793ZM3.16073 7.31176C3.16432 5.50174 4.2971 3.95852 5.89443 3.34493V11.2777C4.2971 10.6646 3.16432 9.12232 3.16073 7.31176ZM7.41897 0.605469C3.70866 0.606721 0.702068 3.60797 0.701172 7.31176C0.702068 11.0152 3.70866 14.0159 7.41897 14.017C11.1305 14.0159 14.1377 11.0152 14.1382 7.31176C14.1377 3.60797 11.1305 0.606721 7.41897 0.605469Z" fill="white"/>
</svg>
