<svg width="27" height="9" viewBox="0 0 27 9" fill="none" xmlns="http://www.w3.org/2000/svg">
<path d="M23.3 2.6957H23C22.6 3.6957 22.3 4.1957 22 5.6957H23.9C23.6 4.1957 23.6 3.4957 23.3 2.6957ZM26.2 8.5957H24.5C24.4 8.5957 24.4 8.5957 24.3 8.4957L24.1 7.5957L24 7.3957H21.6C21.5 7.3957 21.4 7.3957 21.4 7.5957L21.1 8.4957C21.1 8.5957 21 8.5957 21 8.5957H18.9L19.1 8.0957L22 1.2957C22 0.795703 22.3 0.595703 22.8 0.595703H24.3C24.4 0.595703 24.5 0.595703 24.5 0.795703L25.9 7.2957C26 7.6957 26.1 7.9957 26.1 8.3957C26.2 8.4957 26.2 8.4957 26.2 8.5957ZM12.8 8.2957L13.2 6.4957C13.3 6.4957 13.4 6.5957 13.4 6.5957C14.1 6.8957 14.8 7.0957 15.5 6.9957C15.7 6.9957 16 6.8957 16.2 6.7957C16.7 6.5957 16.7 6.0957 16.3 5.6957C16.1 5.4957 15.8 5.3957 15.5 5.1957C15.1 4.9957 14.7 4.7957 14.4 4.4957C13.2 3.4957 13.6 2.0957 14.3 1.3957C14.9 0.995703 15.2 0.595703 16 0.595703C17.2 0.595703 18.5 0.595703 19.1 0.795703H19.2C19.1 1.3957 19 1.8957 18.8 2.4957C18.3 2.2957 17.8 2.0957 17.3 2.0957C17 2.0957 16.7 2.0957 16.4 2.1957C16.2 2.1957 16.1 2.2957 16 2.3957C15.8 2.5957 15.8 2.8957 16 3.0957L16.5 3.4957C16.9 3.6957 17.3 3.8957 17.6 4.0957C18.1 4.3957 18.6 4.8957 18.7 5.4957C18.9 6.3957 18.6 7.1957 17.8 7.7957C17.3 8.1957 17.1 8.3957 16.4 8.3957C15 8.3957 13.9 8.4957 13 8.1957C12.9 8.3957 12.9 8.3957 12.8 8.2957ZM9.3 8.5957C9.4 7.8957 9.4 7.8957 9.5 7.5957C10 5.3957 10.5 3.0957 10.9 0.895703C11 0.695703 11 0.595703 11.2 0.595703H13C12.8 1.7957 12.6 2.6957 12.3 3.7957C12 5.2957 11.7 6.7957 11.3 8.2957C11.3 8.4957 11.2 8.4957 11 8.4957L9.3 8.5957ZM0 0.795703C0 0.695703 0.2 0.595703 0.3 0.595703H3.7C4.2 0.595703 4.6 0.895703 4.7 1.3957L5.6 5.7957C5.6 5.8957 5.6 5.8957 5.7 5.9957C5.7 5.8957 5.8 5.8957 5.8 5.8957L7.9 0.795703C7.8 0.695703 7.9 0.595703 8 0.595703H10.1C10.1 0.695703 10.1 0.695703 10 0.795703L6.9 8.0957C6.8 8.2957 6.8 8.3957 6.7 8.4957C6.6 8.5957 6.4 8.4957 6.2 8.4957H4.7C4.6 8.4957 4.5 8.4957 4.5 8.2957L2.9 2.0957C2.7 1.8957 2.4 1.5957 2 1.4957C1.4 1.1957 0.3 0.995703 0.0999999 0.995703L0 0.795703Z" fill="#142688"/>
</svg>
